<svg width="32" height="32" viewBox="0 0 32 32" fill="none" xmlns="http://www.w3.org/2000/svg">
<path d="M29 2.85713V22.2856C29 23.0427 28.7033 23.7699 28.1759 24.3056C27.6486 24.8413 26.9328 25.1427 26.1875 25.1427H24.5V9.71405C24.4943 6.87693 22.2303 4.57689 19.4376 4.5714H8.74987V2.85713C8.74987 1.27857 10.0085 0 11.5624 0H26.1875C26.9328 0 27.6486 0.301427 28.1759 0.837152C28.7033 1.37285 29 2.09999 29 2.85713ZM19.4376 6.85729H4.81252C3.2586 6.85729 2 8.13585 2 9.71441V29.1429C2 29.9 2.29672 30.6272 2.82408 31.1628C3.35141 31.6985 4.06721 32 4.81252 32H19.4376C20.1829 32 20.8987 31.6986 21.4261 31.1628C21.9534 30.6272 22.2501 29.9 22.2501 29.1429V9.71441C22.2501 8.95728 21.9534 8.23013 21.4261 7.69444C20.8987 7.15874 20.1829 6.85729 19.4376 6.85729Z" fill="black"/>
</svg>
