<svg width="48" height="48" viewBox="0 0 48 48" fill="none" xmlns="http://www.w3.org/2000/svg">
<circle cx="24" cy="24" r="24" fill="black"/>
<path d="M16 35.8408V12.8008H31.6714V16.817H20.9932V21.317H24.8332C26.7013 21.317 28.3118 21.6133 29.6649 22.2058C31.0256 22.7908 32.075 23.6195 32.813 24.692C33.551 25.7645 33.92 27.0283 33.92 28.4833C33.92 29.9308 33.551 31.2095 32.813 32.3195C32.075 33.422 31.0256 34.2845 29.6649 34.907C28.3118 35.5295 26.7013 35.8408 24.8332 35.8408H16ZM20.9932 31.9258H24.8332C25.7249 31.9258 26.4783 31.7683 27.0933 31.4533C27.7083 31.1308 28.1735 30.707 28.4886 30.182C28.8115 29.6495 28.973 29.0683 28.973 28.4383C28.973 27.5233 28.6155 26.7508 27.9005 26.1208C27.1933 25.4833 26.1708 25.1645 24.8332 25.1645H20.9932V31.9258Z" fill="white"/>
</svg>
